<svg width="1728" height="1117" viewBox="0 0 1728 1117" fill="none" xmlns="http://www.w3.org/2000/svg">
<rect width="1728" height="1117" fill="#F6F6F6"/>
<path d="M619.017 646.226L808.706 456.536L781.043 428.478L766.817 442.507C759.11 450.213 746.662 450.213 738.956 442.507L724.927 428.478C717.221 420.772 717.221 408.323 724.927 400.617L836.765 288.78C844.471 281.073 856.919 281.073 864.625 288.78L878.654 302.809C886.361 310.515 886.361 322.963 878.654 330.669L864.625 344.303L892.684 372.559C900.39 364.853 912.838 364.853 920.544 372.559C928.25 380.265 928.25 392.911 920.544 400.617L948.405 428.478L962.434 414.449C970.14 406.743 982.786 406.743 990.492 414.449L1004.32 428.478C1012.03 436.184 1012.03 448.83 1004.32 456.536L892.684 568.176C884.977 575.883 872.331 575.883 864.625 568.176L850.794 554.345C842.89 546.639 842.89 533.993 850.794 526.287L864.625 512.258L836.765 484.397L646.878 674.284C639.171 681.99 626.723 681.99 619.017 674.284C611.311 666.578 611.311 653.932 619.017 646.226ZM968.757 620.934C979.238 620.934 989.29 625.097 996.701 632.508C1004.11 639.92 1008.28 649.971 1008.28 660.452V680.212H810.682V660.452C810.682 649.971 814.846 639.92 822.257 632.508C829.668 625.097 839.72 620.934 850.201 620.934H968.757Z" fill="#A4A4A4" fill-opacity="0.3"/>
<path d="M513.268 811.866V715.559H532.53V795.45H552.338V811.866H513.268ZM555.184 811.866L564.486 726.503H597.154L606.292 811.866H588.07L586.812 796.325H574.992L573.898 811.866H555.184ZM580.136 741.824L576.579 780.949H585.006L581.012 741.824H580.136ZM612.202 811.866V726.503H636.552C641.878 726.503 646.183 727.67 649.466 730.005C652.786 732.339 655.212 735.604 656.744 739.8C658.276 743.958 659.042 748.847 659.042 754.465C659.042 759.864 658.386 764.624 657.072 768.747C655.759 772.869 653.552 776.097 650.451 778.432C647.387 780.767 643.192 781.934 637.866 781.934H631.135V811.866H612.202ZM631.135 764.643H632.23C635.805 764.643 637.993 763.694 638.796 761.797C639.598 759.9 640 757.347 640 754.136C640 751.181 639.598 748.774 638.796 746.913C638.03 745.016 636.188 744.068 633.269 744.068H631.135V764.643ZM661.341 811.866L670.643 726.503H703.311L712.449 811.866H694.227L692.969 796.325H681.149L680.055 811.866H661.341ZM686.293 741.824L682.736 780.949H691.163L687.168 741.824H686.293ZM718.359 811.866V726.503H744.898C751.829 726.503 757.028 728.436 760.493 732.303C763.995 736.133 765.746 741.751 765.746 749.157V783.302C765.746 792.422 764.16 799.463 760.986 804.424C757.812 809.385 752.231 811.866 744.241 811.866H718.359ZM737.73 794.848H741.068C744.606 794.848 746.376 793.133 746.376 789.704V750.963C746.376 747.752 745.938 745.691 745.062 744.779C744.223 743.831 742.49 743.356 739.864 743.356H737.73V794.848ZM771 811.866L780.302 726.503H812.97L822.108 811.866H803.886L802.628 796.325H790.808L789.714 811.866H771ZM795.952 741.824L792.395 780.949H800.822L796.827 741.824H795.952ZM854.283 811.866V715.559H873.545V795.45H893.354V811.866H854.283ZM898.826 811.866V726.503H937.348V745.107H918.415V759.225H936.582V777.338H918.415V793.097H938.607V811.866H898.826ZM944.134 811.866V726.503H962.739V811.866H944.134ZM970.399 811.866V726.503H989.661V795.45H1009.47V811.866H970.399ZM1038.47 812.741C1022.13 812.741 1013.96 804.26 1013.96 787.297V754.355C1013.96 746.621 1016.13 740.456 1020.47 735.86C1024.81 731.227 1030.81 728.91 1038.47 728.91C1046.17 728.91 1052.19 731.227 1056.53 735.86C1060.87 740.456 1063.04 746.621 1063.04 754.355V787.297C1063.04 804.26 1054.85 812.741 1038.47 812.741ZM1038.47 797.639C1040.11 797.639 1041.28 797.055 1041.97 795.888C1042.7 794.684 1043.07 793.17 1043.07 791.346V751.236C1043.07 746.457 1041.54 744.068 1038.47 744.068C1035.41 744.068 1033.87 746.457 1033.87 751.236V791.346C1033.87 793.17 1034.22 794.684 1034.91 795.888C1035.64 797.055 1036.83 797.639 1038.47 797.639ZM1047.5 725.354C1044.8 725.354 1042.32 724.934 1040.06 724.095C1037.83 723.256 1035.81 722.435 1033.98 721.633C1032.16 720.794 1030.5 720.374 1029 720.374C1028.06 720.374 1027.16 720.648 1026.32 721.195C1025.48 721.742 1024.7 722.709 1023.97 724.095L1015.87 719.827C1016.78 717.82 1017.77 715.978 1018.83 714.3C1019.92 712.622 1021.31 711.272 1022.99 710.251C1024.66 709.229 1026.8 708.719 1029.39 708.719C1031.98 708.719 1034.33 709.102 1036.45 709.868C1038.6 710.634 1040.53 711.4 1042.25 712.166C1043.96 712.932 1045.51 713.315 1046.9 713.315C1047.88 713.315 1048.79 713.005 1049.63 712.385C1050.47 711.765 1051.26 710.707 1051.99 709.211L1061.07 712.166C1060.19 714.428 1059.23 716.58 1058.17 718.623C1057.11 720.629 1055.74 722.253 1054.07 723.493C1052.42 724.733 1050.24 725.354 1047.5 725.354ZM1070.65 811.866V726.503H1109.17V745.107H1090.24V759.225H1108.4V777.338H1090.24V793.097H1110.43V811.866H1070.65ZM1139.7 812.741C1130.91 812.741 1124.56 810.553 1120.66 806.175C1116.79 801.797 1114.86 794.83 1114.86 785.272V782.153H1133.9V787.899C1133.9 790.124 1134.23 791.875 1134.89 793.152C1135.58 794.392 1136.77 795.012 1138.44 795.012C1140.2 795.012 1141.4 794.556 1142.06 793.644C1142.75 792.696 1143.1 791.328 1143.1 789.54C1143.1 787.169 1142.29 785.163 1140.69 783.521C1139.12 781.879 1136.51 779.654 1132.86 776.845L1124.55 770.388C1121.01 767.652 1118.51 764.624 1117.05 761.305C1115.59 757.985 1114.86 753.954 1114.86 749.211C1114.86 741.806 1116.76 736.024 1120.55 731.865C1124.38 727.707 1129.91 725.627 1137.13 725.627C1145.96 725.627 1152.22 727.925 1155.9 732.522C1159.62 737.118 1161.48 743.867 1161.48 752.768H1141.95V748.062C1141.95 744.925 1140.49 743.356 1137.57 743.356C1136.11 743.356 1135.03 743.794 1134.34 744.67C1133.65 745.509 1133.3 746.603 1133.3 747.953C1133.3 749.303 1133.61 750.579 1134.23 751.783C1134.89 752.951 1136.38 754.483 1138.72 756.38L1149.83 765.409C1153.88 768.692 1156.94 772.139 1159.02 775.751C1161.1 779.362 1162.14 784.05 1162.14 789.814C1162.14 793.827 1161.41 797.584 1159.95 801.086C1158.53 804.588 1156.17 807.415 1152.89 809.568C1149.61 811.684 1145.21 812.741 1139.7 812.741Z" fill="#A4A4A4" fill-opacity="0.3"/>
</svg>
