<svg width="703" height="591" viewBox="0 0 703 591" fill="none" xmlns="http://www.w3.org/2000/svg">
<path d="M115.044 379.823L313.401 181.466L284.474 152.125L269.597 166.796C261.539 174.854 248.521 174.854 240.463 166.796L225.793 152.125C217.735 144.067 217.735 131.05 225.793 122.992L342.741 6.04369C350.799 -2.01456 363.816 -2.01456 371.875 6.04369L386.545 20.7138C394.603 28.7721 394.603 41.7893 386.545 49.8475L371.875 64.1044L401.215 93.6514C409.273 85.5931 422.29 85.5931 430.349 93.6514C438.407 101.71 438.407 114.933 430.349 122.992L459.482 152.125L474.152 137.455C482.211 129.397 495.435 129.397 503.493 137.455L517.956 152.125C526.015 160.184 526.015 173.407 517.956 181.466L401.215 298.207C393.157 306.265 379.933 306.265 371.875 298.207L357.411 283.743C349.146 275.685 349.146 262.461 357.411 254.403L371.875 239.733L342.741 210.599L144.177 409.163C136.119 417.221 123.102 417.221 115.044 409.163C106.985 401.105 106.985 387.881 115.044 379.823ZM480.764 353.375C491.724 353.375 502.235 357.729 509.985 365.479C517.735 373.228 522.089 383.74 522.089 394.699V415.362H315.467V394.699C315.467 383.74 319.821 373.228 327.571 365.479C335.32 357.729 345.831 353.375 356.791 353.375H480.764Z" fill="white"/>
<path d="M4.46319 553V452.292H24.6048V535.834H45.3185V553H4.46319ZM48.294 553L58.0215 463.736H92.182L101.738 553H82.6834L81.3674 536.749H69.0078L67.8634 553H48.294ZM74.3865 479.758L70.6672 520.67H79.4791L75.302 479.758H74.3865ZM107.918 553V463.736H133.381C138.95 463.736 143.451 464.957 146.885 467.398C150.356 469.84 152.893 473.254 154.495 477.641C156.097 481.99 156.898 487.101 156.898 492.976C156.898 498.622 156.212 503.6 154.838 507.91C153.465 512.221 151.157 515.597 147.915 518.038C144.71 520.48 140.323 521.7 134.754 521.7H127.716V553H107.918ZM127.716 503.619H128.86C132.599 503.619 134.887 502.627 135.727 500.643C136.566 498.66 136.986 495.989 136.986 492.633C136.986 489.543 136.566 487.025 135.727 485.079C134.926 483.096 132.999 482.104 129.947 482.104H127.716V503.619ZM159.301 553L169.029 463.736H203.19L212.745 553H193.691L192.375 536.749H180.015L178.871 553H159.301ZM185.394 479.758L181.675 520.67H190.487L186.31 479.758H185.394ZM218.925 553V463.736H246.677C253.925 463.736 259.361 465.758 262.985 469.802C266.647 473.807 268.478 479.682 268.478 487.425V523.131C268.478 532.668 266.819 540.03 263.5 545.218C260.181 550.406 254.345 553 245.99 553H218.925ZM239.181 535.204H242.672C246.372 535.204 248.222 533.412 248.222 529.826V489.314C248.222 485.957 247.764 483.802 246.849 482.848C245.971 481.856 244.159 481.36 241.413 481.36H239.181V535.204ZM273.971 553L283.699 463.736H317.859L327.415 553H308.361L307.044 536.749H294.685L293.54 553H273.971ZM300.064 479.758L296.344 520.67H305.156L300.979 479.758H300.064ZM361.061 553V452.292H381.202V535.834H401.916V553H361.061ZM407.638 553V463.736H447.921V483.191H428.123V497.954H447.12V516.894H428.123V533.373H449.237V553H407.638ZM455.016 553V463.736H474.471V553H455.016ZM482.482 553V463.736H502.624V535.834H523.337V553H482.482ZM553.664 553.916C536.574 553.916 528.03 545.046 528.03 527.308V492.861C528.03 484.774 530.299 478.327 534.839 473.521C539.378 468.676 545.653 466.254 553.664 466.254C561.713 466.254 568.007 468.676 572.547 473.521C577.086 478.327 579.356 484.774 579.356 492.861V527.308C579.356 545.046 570.792 553.916 553.664 553.916ZM553.664 538.123C555.381 538.123 556.602 537.512 557.326 536.292C558.089 535.033 558.471 533.45 558.471 531.542V489.6C558.471 484.603 556.869 482.104 553.664 482.104C550.46 482.104 548.858 484.603 548.858 489.6V531.542C548.858 533.45 549.22 535.033 549.945 536.292C550.708 537.512 551.948 538.123 553.664 538.123ZM563.106 462.535C560.283 462.535 557.689 462.096 555.324 461.219C552.997 460.341 550.88 459.483 548.972 458.644C547.065 457.766 545.329 457.328 543.765 457.328C542.773 457.328 541.839 457.614 540.961 458.186C540.084 458.758 539.264 459.769 538.501 461.219L530.032 456.755C530.986 454.657 532.016 452.731 533.122 450.976C534.267 449.221 535.716 447.81 537.471 446.742C539.226 445.674 541.457 445.14 544.166 445.14C546.874 445.14 549.335 445.54 551.547 446.341C553.798 447.142 555.82 447.943 557.612 448.744C559.405 449.546 561.027 449.946 562.476 449.946C563.506 449.946 564.46 449.622 565.337 448.973C566.215 448.325 567.035 447.219 567.798 445.655L577.296 448.744C576.381 451.11 575.37 453.36 574.264 455.496C573.157 457.595 571.727 459.292 569.972 460.589C568.255 461.886 565.967 462.535 563.106 462.535ZM587.31 553V463.736H627.593V483.191H607.795V497.954H626.792V516.894H607.795V533.373H628.909V553H587.31ZM659.522 553.916C650.329 553.916 643.691 551.627 639.609 547.049C635.566 542.471 633.544 535.185 633.544 525.191V521.929H653.457V527.937C653.457 530.264 653.8 532.095 654.487 533.431C655.211 534.728 656.451 535.376 658.206 535.376C660.037 535.376 661.296 534.899 661.982 533.946C662.707 532.954 663.07 531.523 663.07 529.654C663.07 527.175 662.23 525.076 660.552 523.36C658.912 521.643 656.184 519.316 652.369 516.379L643.672 509.627C639.972 506.766 637.359 503.6 635.833 500.128C634.307 496.657 633.544 492.442 633.544 487.483C633.544 479.739 635.528 473.693 639.495 469.344C643.5 464.995 649.279 462.821 656.833 462.821C666.064 462.821 672.606 465.224 676.459 470.03C680.35 474.837 682.296 481.894 682.296 491.202H661.868V486.281C661.868 483 660.342 481.36 657.29 481.36C655.764 481.36 654.639 481.818 653.914 482.733C653.19 483.611 652.827 484.755 652.827 486.167C652.827 487.578 653.151 488.913 653.8 490.172C654.487 491.393 656.051 492.995 658.492 494.979L670.108 504.42C674.342 507.853 677.546 511.458 679.721 515.235C681.895 519.011 682.982 523.913 682.982 529.94C682.982 534.136 682.219 538.065 680.693 541.728C679.206 545.39 676.745 548.346 673.312 550.597C669.879 552.809 665.282 553.916 659.522 553.916Z" fill="white"/>
</svg>
