<svg width="37" height="37" viewBox="0 0 37 37" fill="none" xmlns="http://www.w3.org/2000/svg">
<path d="M0.538366 33.8342L18.2078 16.1648L15.631 13.5512L14.3058 14.858C13.588 15.5758 12.4284 15.5758 11.7106 14.858L10.4038 13.5512C9.68598 12.8334 9.68598 11.6738 10.4038 10.956L20.8214 0.538366C21.5392 -0.179455 22.6988 -0.179455 23.4166 0.538366L24.7234 1.84517C25.4412 2.56299 25.4412 3.72255 24.7234 4.44037L23.4166 5.71036L26.0302 8.34237C26.748 7.62455 27.9076 7.62455 28.6254 8.34237C29.3432 9.06019 29.3432 10.2382 28.6254 10.956L31.2206 13.5512L32.5274 12.2444C33.2452 11.5266 34.4232 11.5266 35.141 12.2444L36.4294 13.5512C37.1472 14.269 37.1472 15.447 36.4294 16.1648L26.0302 26.564C25.3124 27.2818 24.1344 27.2818 23.4166 26.564L22.1282 25.2756C21.392 24.5578 21.392 23.3798 22.1282 22.662L23.4166 21.3552L20.8214 18.76L3.13357 36.4478C2.41574 37.1657 1.25619 37.1657 0.538366 36.4478C-0.179455 35.73 -0.179455 34.552 0.538366 33.8342ZM33.1164 31.4783C34.0927 31.4783 35.029 31.8661 35.7194 32.5565C36.4097 33.2468 36.7975 34.1831 36.7975 35.1594V37H18.3919V35.1594C18.3919 34.1831 18.7797 33.2468 19.47 32.5565C20.1604 31.8661 21.0967 31.4783 22.073 31.4783H33.1164Z" fill="white"/>
</svg>
