<svg width="165" height="28" viewBox="0 0 165 28" fill="none" xmlns="http://www.w3.org/2000/svg">
<path d="M0.0799255 27V2.63245H4.95344V22.8464H9.9654V27H0.0799255ZM10.6853 27L13.039 5.40149H21.3046L23.6168 27H19.0063L18.6879 23.068H15.6973L15.4204 27H10.6853ZM16.9988 9.27815L16.0988 19.1775H18.231L17.2203 9.27815H16.9988ZM25.112 27V5.40149H31.2732C32.6208 5.40149 33.7099 5.69685 34.5406 6.28758C35.3806 6.87831 35.9944 7.70441 36.382 8.76587C36.7697 9.81811 36.9635 11.0549 36.9635 12.4764C36.9635 13.8424 36.7974 15.047 36.4651 16.09C36.1328 17.133 35.5744 17.9499 34.7898 18.5406C34.0145 19.1313 32.953 19.4267 31.6054 19.4267H29.9025V27H25.112ZM29.9025 15.0516H30.1794C31.0839 15.0516 31.6377 14.8116 31.8408 14.3316C32.0439 13.8517 32.1454 13.2056 32.1454 12.3933C32.1454 11.6457 32.0439 11.0365 31.8408 10.5657C31.647 10.0858 31.1809 9.8458 30.4424 9.8458H29.9025V15.0516ZM37.545 27L39.8987 5.40149H48.1643L50.4764 27H45.866L45.5476 23.068H42.557L42.2801 27H37.545ZM43.8584 9.27815L42.9585 19.1775H45.0907L44.08 9.27815H43.8584ZM51.9717 27V5.40149H58.6867C60.4404 5.40149 61.7557 5.89069 62.6325 6.86908C63.5186 7.83824 63.9617 9.25969 63.9617 11.1334V19.7728C63.9617 22.0803 63.5602 23.8618 62.7571 25.1171C61.9541 26.3724 60.5419 27 58.5205 27H51.9717ZM56.8729 22.6941H57.7175C58.6128 22.6941 59.0605 22.2603 59.0605 21.3927V11.5903C59.0605 10.778 58.9497 10.2565 58.7282 10.0258C58.5159 9.7858 58.0775 9.66581 57.4129 9.66581H56.8729V22.6941ZM65.2908 27L67.6445 5.40149H75.9101L78.2222 27H73.6118L73.2933 23.068H70.3028L70.0259 27H65.2908ZM71.6042 9.27815L70.7043 19.1775H72.8364L71.8257 9.27815H71.6042ZM86.3632 27V2.63245H91.2367V22.8464H96.2487V27H86.3632ZM97.6332 27V5.40149H107.38V10.1089H102.59V13.6809H107.186V18.2637H102.59V22.2511H107.699V27H97.6332ZM109.097 27V5.40149H113.804V27H109.097ZM115.743 27V5.40149H120.616V22.8464H125.628V27H115.743ZM132.966 27.2215C128.831 27.2215 126.763 25.0755 126.763 20.7835V12.4487C126.763 10.4919 127.313 8.93202 128.411 7.76902C129.509 6.59679 131.028 6.01068 132.966 6.01068C134.914 6.01068 136.437 6.59679 137.535 7.76902C138.633 8.93202 139.183 10.4919 139.183 12.4487V20.7835C139.183 25.0755 137.11 27.2215 132.966 27.2215ZM132.966 23.4002C133.382 23.4002 133.677 23.2526 133.852 22.9572C134.037 22.6526 134.129 22.2696 134.129 21.8081V11.6595C134.129 10.4504 133.741 9.8458 132.966 9.8458C132.191 9.8458 131.803 10.4504 131.803 11.6595V21.8081C131.803 22.2696 131.891 22.6526 132.066 22.9572C132.251 23.2526 132.551 23.4002 132.966 23.4002ZM135.251 5.11074C134.568 5.11074 133.94 5.00459 133.368 4.7923C132.805 4.58001 132.292 4.37233 131.831 4.16927C131.369 3.95697 130.949 3.85083 130.571 3.85083C130.331 3.85083 130.105 3.92005 129.893 4.05851C129.68 4.19696 129.482 4.44156 129.297 4.7923L127.248 3.71238C127.479 3.20472 127.728 2.7386 127.996 2.31401C128.273 1.88942 128.623 1.54791 129.048 1.28947C129.473 1.03102 130.013 0.9018 130.668 0.9018C131.323 0.9018 131.919 0.998717 132.454 1.19255C132.998 1.38638 133.488 1.58022 133.921 1.77405C134.355 1.96788 134.748 2.0648 135.098 2.0648C135.348 2.0648 135.578 1.98634 135.791 1.82943C136.003 1.67252 136.201 1.40484 136.386 1.02641L138.684 1.77405C138.463 2.34632 138.218 2.89089 137.95 3.40778C137.683 3.91544 137.337 4.32618 136.912 4.64C136.497 4.95383 135.943 5.11074 135.251 5.11074ZM141.107 27V5.40149H150.854V10.1089H146.064V13.6809H150.66V18.2637H146.064V22.2511H151.173V27H141.107ZM158.58 27.2215C156.355 27.2215 154.749 26.6677 153.762 25.5601C152.783 24.4525 152.294 22.6895 152.294 20.2712V19.4821H157.112V20.9358C157.112 21.4988 157.195 21.9419 157.361 22.2649C157.537 22.5788 157.837 22.7357 158.261 22.7357C158.704 22.7357 159.009 22.6203 159.175 22.3895C159.35 22.1496 159.438 21.8034 159.438 21.3512C159.438 20.7512 159.235 20.2435 158.829 19.8282C158.432 19.4128 157.772 18.8498 156.849 18.1391L154.745 16.5053C153.849 15.8131 153.217 15.047 152.848 14.207C152.479 13.3671 152.294 12.3472 152.294 11.1472C152.294 9.27353 152.774 7.81055 153.734 6.75832C154.703 5.70608 156.101 5.17997 157.929 5.17997C160.163 5.17997 161.746 5.76147 162.678 6.92446C163.619 8.08746 164.09 9.79503 164.09 12.0472H159.147V10.8565C159.147 10.0627 158.778 9.66581 158.04 9.66581C157.671 9.66581 157.398 9.77657 157.223 9.9981C157.048 10.2104 156.96 10.4873 156.96 10.8288C156.96 11.1703 157.038 11.4934 157.195 11.798C157.361 12.0933 157.74 12.481 158.331 12.961L161.141 15.2454C162.166 16.0761 162.941 16.9484 163.467 17.8622C163.993 18.776 164.256 19.962 164.256 21.4204C164.256 22.4357 164.072 23.3864 163.702 24.2725C163.343 25.1586 162.747 25.8739 161.916 26.4185C161.086 26.9538 159.974 27.2215 158.58 27.2215Z" fill="white"/>
</svg>
